<svg width="135" height="111" viewBox="0 0 135 111" fill="none" xmlns="http://www.w3.org/2000/svg">
<path d="M70.7363 64.1025C70.7363 79.4346 67.8555 91.0068 62.0938 98.8193C56.3809 106.583 47.665 110.465 35.9463 110.465C24.4229 110.465 15.7314 106.681 9.87207 99.1123C4.06152 91.4951 1.08301 80.2402 0.936523 65.3477V46.8906C0.936523 31.5586 3.79297 20.0596 9.50586 12.3936C15.2676 4.72754 24.0322 0.894531 35.7998 0.894531C47.4697 0.894531 56.1611 4.62988 61.874 12.1006C67.6357 19.5713 70.5898 30.7529 70.7363 45.6455V64.1025ZM52.9385 44.1807C52.9385 34.1709 51.5713 26.8467 48.8369 22.208C46.1025 17.5205 41.7568 15.1768 35.7998 15.1768C29.9893 15.1768 25.7168 17.3984 22.9824 21.8418C20.248 26.2363 18.8076 33.1211 18.6611 42.4961V66.666C18.6611 76.627 20.0527 84.0488 22.8359 88.9316C25.6191 93.8145 29.9893 96.2559 35.9463 96.2559C41.6592 96.2559 45.8828 94.0098 48.6172 89.5176C51.3516 84.9766 52.792 77.8965 52.9385 68.2773V44.1807ZM134.677 109H116.952V23.3799L90.8047 32.3154V17.3008L132.406 1.99316H134.677V109Z" fill="url(#paint0_linear_239_4070)"/>
<defs>
<linearGradient id="paint0_linear_239_4070" x1="78.5" y1="-77" x2="78.5" y2="193" gradientUnits="userSpaceOnUse">
<stop stop-color="white"/>
<stop offset="1" stop-color="white" stop-opacity="0.57"/>
</linearGradient>
</defs>
</svg>
