<svg width="159" height="111" viewBox="0 0 159 111" fill="none" xmlns="http://www.w3.org/2000/svg">
<path d="M70.7363 64.1025C70.7363 79.4346 67.8555 91.0068 62.0938 98.8193C56.3809 106.583 47.665 110.465 35.9463 110.465C24.4229 110.465 15.7314 106.681 9.87207 99.1123C4.06152 91.4951 1.08301 80.2402 0.936523 65.3477V46.8906C0.936523 31.5586 3.79297 20.0596 9.50586 12.3936C15.2676 4.72754 24.0322 0.894531 35.7998 0.894531C47.4697 0.894531 56.1611 4.62988 61.874 12.1006C67.6357 19.5713 70.5898 30.7529 70.7363 45.6455V64.1025ZM52.9385 44.1807C52.9385 34.1709 51.5713 26.8467 48.8369 22.208C46.1025 17.5205 41.7568 15.1768 35.7998 15.1768C29.9893 15.1768 25.7168 17.3984 22.9824 21.8418C20.248 26.2363 18.8076 33.1211 18.6611 42.4961V66.666C18.6611 76.627 20.0527 84.0488 22.8359 88.9316C25.6191 93.8145 29.9893 96.2559 35.9463 96.2559C41.6592 96.2559 45.8828 94.0098 48.6172 89.5176C51.3516 84.9766 52.792 77.8965 52.9385 68.2773V44.1807ZM158.188 109H86.4834V96.7686L122.006 58.0234C127.133 52.3105 130.771 47.5498 132.919 43.7412C135.116 39.8838 136.215 36.0264 136.215 32.1689C136.215 27.0908 134.774 22.9893 131.894 19.8643C129.062 16.7393 125.229 15.1768 120.395 15.1768C114.633 15.1768 110.165 16.9346 106.991 20.4502C103.817 23.9658 102.23 28.7754 102.23 34.8789H84.4326C84.4326 28.3848 85.8975 22.5498 88.8271 17.374C91.8057 12.1494 96.0293 8.09668 101.498 5.21582C107.016 2.33496 113.363 0.894531 120.541 0.894531C130.893 0.894531 139.047 3.50684 145.004 8.73145C151.01 13.9072 154.013 21.085 154.013 30.2646C154.013 35.5869 152.499 41.1777 149.472 47.0371C146.493 52.8477 141.586 59.4639 134.75 66.8857L108.676 94.791H158.188V109Z" fill="url(#paint0_linear_239_1834)"/>
<defs>
<linearGradient id="paint0_linear_239_1834" x1="78.5" y1="-77" x2="78.5" y2="193" gradientUnits="userSpaceOnUse">
<stop stop-color="white"/>
<stop offset="1" stop-color="white" stop-opacity="0.57"/>
</linearGradient>
</defs>
</svg>
