<svg width="156" height="111" viewBox="0 0 156 111" fill="none" xmlns="http://www.w3.org/2000/svg">
<path d="M70.7363 64.1025C70.7363 79.4346 67.8555 91.0068 62.0938 98.8193C56.3809 106.583 47.665 110.465 35.9463 110.465C24.4229 110.465 15.7314 106.681 9.87207 99.1123C4.06152 91.4951 1.08301 80.2402 0.936523 65.3477V46.8906C0.936523 31.5586 3.79297 20.0596 9.50586 12.3936C15.2676 4.72754 24.0322 0.894531 35.7998 0.894531C47.4697 0.894531 56.1611 4.62988 61.874 12.1006C67.6357 19.5713 70.5898 30.7529 70.7363 45.6455V64.1025ZM52.9385 44.1807C52.9385 34.1709 51.5713 26.8467 48.8369 22.208C46.1025 17.5205 41.7568 15.1768 35.7998 15.1768C29.9893 15.1768 25.7168 17.3984 22.9824 21.8418C20.248 26.2363 18.8076 33.1211 18.6611 42.4961V66.666C18.6611 76.627 20.0527 84.0488 22.8359 88.9316C25.6191 93.8145 29.9893 96.2559 35.9463 96.2559C41.6592 96.2559 45.8828 94.0098 48.6172 89.5176C51.3516 84.9766 52.792 77.8965 52.9385 68.2773V44.1807ZM107.064 47.5498H117.904C123.373 47.501 127.694 46.085 130.868 43.3018C134.091 40.5186 135.702 36.4902 135.702 31.2168C135.702 26.1387 134.359 22.208 131.674 19.4248C129.037 16.5928 124.984 15.1768 119.516 15.1768C114.73 15.1768 110.8 16.5684 107.724 19.3516C104.647 22.0859 103.109 25.6748 103.109 30.1182H85.3115C85.3115 24.6494 86.752 19.6689 89.6328 15.1768C92.5625 10.6846 96.6152 7.19336 101.791 4.70312C107.016 2.16406 112.851 0.894531 119.296 0.894531C129.94 0.894531 138.29 3.58008 144.345 8.95117C150.448 14.2734 153.5 21.6953 153.5 31.2168C153.5 36.002 151.962 40.5186 148.886 44.7666C145.858 48.9658 141.928 52.1396 137.094 54.2881C142.953 56.29 147.396 59.4395 150.424 63.7363C153.5 68.0332 155.038 73.1602 155.038 79.1172C155.038 88.6875 151.742 96.3047 145.15 101.969C138.607 107.633 129.989 110.465 119.296 110.465C109.042 110.465 100.644 107.73 94.1006 102.262C87.5576 96.793 84.2861 89.5176 84.2861 80.4355H102.084C102.084 85.123 103.646 88.9316 106.771 91.8613C109.945 94.791 114.193 96.2559 119.516 96.2559C125.033 96.2559 129.379 94.791 132.553 91.8613C135.727 88.9316 137.313 84.6836 137.313 79.1172C137.313 73.502 135.653 69.1807 132.333 66.1533C129.013 63.126 124.081 61.6123 117.538 61.6123H107.064V47.5498Z" fill="url(#paint0_linear_239_1835)"/>
<defs>
<linearGradient id="paint0_linear_239_1835" x1="78.5" y1="-77" x2="78.5" y2="193" gradientUnits="userSpaceOnUse">
<stop stop-color="white"/>
<stop offset="1" stop-color="white" stop-opacity="0.57"/>
</linearGradient>
</defs>
</svg>
