<svg width="793" height="65" viewBox="0 0 793 65" fill="none" xmlns="http://www.w3.org/2000/svg">
<path d="M15.7244 43.3333V64.1312H0V0.868839H26.9484C32.0815 0.868839 36.6362 1.79198 40.6124 3.63826C44.5887 5.44834 47.6433 8.03676 49.776 11.4035C51.9449 14.7703 53.0293 18.5714 53.0293 22.807C53.0293 29.0699 50.6616 34.0657 45.9262 37.7945C41.1908 41.4871 34.7745 43.3333 26.6773 43.3333H15.7244ZM15.7244 30.6809H26.9484C30.2741 30.6809 32.8406 29.993 34.648 28.6174C36.4916 27.2417 37.4133 25.3411 37.4133 22.9156C37.4133 20.1281 36.4916 17.8836 34.648 16.1821C32.8406 14.4806 30.3283 13.6118 27.1111 13.5756H15.7244V30.6809Z" fill="#242021"/>
<path d="M101.233 52.076H76.7787L72.3324 64.1312H56.608L81.6044 0.868839H96.3529L121.566 64.1312H105.733L101.233 52.076ZM81.008 40.5639H96.8951L88.9244 19.1688L81.008 40.5639Z" fill="#242021"/>
<path d="M181.211 56.4745C178.753 59.0448 175.156 61.1083 170.42 62.665C165.721 64.2217 160.407 65 154.479 65C145.442 65 138.267 62.3573 132.953 57.0718C127.639 51.7502 124.892 44.4375 124.711 35.1337V30.8981C124.711 21.3409 127.314 13.8109 132.519 8.30827C137.724 2.76942 144.737 0 153.557 0C161.871 0 168.342 1.82818 172.969 5.48454C177.596 9.14091 180.325 14.6255 181.156 21.9382H166.028C165.522 18.861 164.366 16.5441 162.558 14.9875C160.787 13.4308 157.967 12.6525 154.1 12.6525C149.762 12.6525 146.4 14.1548 144.014 17.1596C141.665 20.1643 140.472 24.6171 140.436 30.518V34.2105C140.436 40.401 141.683 44.9805 144.177 47.949C146.671 50.9176 150.449 52.4018 155.509 52.4018C160.064 52.4018 163.372 51.6416 165.432 50.1211V41.1069H153.286V29.9749H181.211V56.4745Z" fill="#242021"/>
<path d="M232.234 37.7945H206.153V51.533H236.843V64.1312H190.428V0.868839H236.897V13.5756H206.153V25.142H232.234V37.7945Z" fill="#242021"/>
<path d="M327.99 64.1312H312.32L287.378 24.7076V64.1312H271.653V0.868839H287.378L312.32 40.3467V0.868839H327.99V64.1312Z" fill="#242021"/>
<path d="M395.768 33.7761C395.768 39.9666 394.557 45.433 392.135 50.1754C389.713 54.9179 386.243 58.5742 381.724 61.1445C377.242 63.7148 372.145 65 366.434 65C360.686 65 355.553 63.7329 351.035 61.1988C346.552 58.6647 343.082 55.0627 340.624 50.3926C338.166 45.6864 336.919 40.2743 336.883 34.1562V31.3325C336.883 25.1058 338.094 19.6213 340.516 14.8789C342.938 10.1365 346.39 6.48009 350.872 3.90977C355.354 1.30326 360.505 0 366.325 0C372.037 0 377.116 1.26706 381.562 3.80117C386.044 6.33528 389.514 9.97355 391.972 14.716C394.467 19.4222 395.732 24.8524 395.768 31.0067V33.7761ZM380.044 31.2782C380.044 25.2687 378.833 20.653 376.411 17.4311C374.025 14.2091 370.663 12.5982 366.325 12.5982C361.843 12.5982 358.427 14.2091 356.077 17.4311C353.764 20.653 352.607 25.2687 352.607 31.2782V33.7761C352.607 39.677 353.8 44.2746 356.186 47.5689C358.572 50.8633 361.988 52.5104 366.434 52.5104C370.627 52.5104 373.935 50.8814 376.356 47.6232C378.815 44.3651 380.044 39.6951 380.044 33.6132V31.2782Z" fill="#242021"/>
<path d="M456.443 13.5756H435.947V64.1312H420.222V13.5756H400.106V0.868839H456.443V13.5756Z" fill="#242021"/>
<path d="M533.601 39.4779H507.086V64.1312H491.362V0.868839H536.475V13.5756H507.086V26.8254H533.601V39.4779Z" fill="#242021"/>
<path d="M600.62 33.7761C600.62 39.9666 599.409 45.433 596.987 50.1754C594.565 54.9179 591.094 58.5742 586.576 61.1445C582.094 63.7148 576.997 65 571.285 65C565.538 65 560.405 63.7329 555.886 61.1988C551.404 58.6647 547.934 55.0627 545.476 50.3926C543.018 45.6864 541.77 40.2743 541.734 34.1562V31.3325C541.734 25.1058 542.945 19.6213 545.367 14.8789C547.789 10.1365 551.241 6.48009 555.724 3.90977C560.206 1.30326 565.357 0 571.177 0C576.888 0 581.967 1.26706 586.413 3.80117C590.896 6.33528 594.366 9.97355 596.824 14.716C599.318 19.4222 600.583 24.8524 600.62 31.0067V33.7761ZM584.895 31.2782C584.895 25.2687 583.684 20.653 581.262 17.4311C578.876 14.2091 575.515 12.5982 571.177 12.5982C566.695 12.5982 563.279 14.2091 560.929 17.4311C558.615 20.653 557.459 25.2687 557.459 31.2782V33.7761C557.459 39.677 558.652 44.2746 561.037 47.5689C563.423 50.8633 566.839 52.5104 571.285 52.5104C575.479 52.5104 578.786 50.8814 581.208 47.6232C583.666 44.3651 584.895 39.6951 584.895 33.6132V31.2782Z" fill="#242021"/>
<path d="M662.324 0.868839V41.8129C662.324 49.017 659.993 54.6825 655.33 58.8095C650.667 62.9365 644.178 65 635.864 65C627.586 65 621.079 62.9365 616.344 58.8095C611.609 54.6825 609.241 49.0351 609.241 41.8672V0.868839H624.965V42.6274C625.182 49.1437 628.815 52.4018 635.864 52.4018C639.37 52.4018 642.027 51.5873 643.835 49.9582C645.678 48.3292 646.6 45.6502 646.6 41.9215V0.868839H662.324Z" fill="#242021"/>
<path d="M729.235 64.1312H713.564L688.622 24.7076V64.1312H672.898V0.868839H688.622L713.564 40.3467V0.868839H729.235V64.1312Z" fill="#242021"/>
<path d="M740.025 64.1312V0.868839H761.605C767.534 0.868839 772.884 2.1359 777.655 4.67001C782.427 7.20412 786.15 10.77 788.825 15.3676C791.536 19.929 792.928 25.0696 793 30.7895V33.7761C793 39.5322 791.663 44.7452 788.988 49.4152C786.349 54.049 782.644 57.6692 777.872 60.2757C773.137 62.846 767.769 64.1312 761.768 64.1312H740.025ZM755.749 13.5756V51.533H761.768C767.118 51.533 771.004 50.1754 773.426 47.4603C775.884 44.709 777.149 40.3829 777.221 34.482V31.2239C777.221 25.1782 776.01 20.7616 773.588 17.9741C771.203 15.1504 767.443 13.6842 762.31 13.5756H755.749Z" fill="#242021"/>
</svg>
